<?xml version="1.0" encoding="utf-8"?>
<!-- Generator: Adobe Illustrator 19.1.0, SVG Export Plug-In . SVG Version: 6.00 Build 0)  -->
<svg version="1.1" id="Layer_1" xmlns="http://www.w3.org/2000/svg" xmlns:xlink="http://www.w3.org/1999/xlink" x="0px" y="0px"
	 viewBox="-101 49 48 48" style="enable-background:new -101 49 48 48;" xml:space="preserve">
<g>
	<path d="M-77,49c-13.3,0-24,10.7-24,24s10.7,24,24,24s24-10.7,24-24S-63.7,49-77,49z M-85,88h-7V68h7V88z M-88.5,65
		c-1.9,0-3.5-1.6-3.5-3.5s1.6-3.5,3.5-3.5s3.5,1.6,3.5,3.5S-86.6,65-88.5,65z M-62,88h-6v-9.7c0-2.3-0.3-5.3-3.4-5.3
		c-3.2,0-3.7,2.5-3.7,5.1V88H-81V68h5.6v2.7h0.1c0.8-1.6,2.9-2.7,5.9-2.7c6.3,0,7.5,3.6,7.5,9L-62,88L-62,88z"/>
</g>
</svg>
