<?xml version="1.0" encoding="utf-8"?>
<!-- Generator: Adobe Illustrator 19.1.0, SVG Export Plug-In . SVG Version: 6.00 Build 0)  -->
<svg version="1.1" id="Layer_2" xmlns="http://www.w3.org/2000/svg" xmlns:xlink="http://www.w3.org/1999/xlink" x="0px" y="0px"
	 viewBox="0 0 198.2 65.3" style="enable-background:new 0 0 198.2 65.3;" xml:space="preserve">
<g>
	<path d="M23.9,25.6c-0.7,0.9-1.5,1.7-2.5,2.4c-1,0.7-2.1,1.3-3.4,1.7c-1.3,0.4-2.8,0.7-4.6,0.7c-2.2,0-4.1-0.4-5.8-1.2
		C6,28.4,4.6,27.3,3.4,26c-1.1-1.3-2-2.9-2.6-4.8c-0.6-1.8-0.9-3.9-0.9-6c0-2.4,0.3-4.5,1-6.3c0.7-1.9,1.6-3.5,2.8-4.8
		C4.9,2.8,6.4,1.8,8,1c1.6-0.7,3.5-1,5.4-1c1.8,0,3.3,0.2,4.6,0.6c1.3,0.4,2.4,0.9,3.4,1.7C22.4,3,23.2,3.9,23.8,5
		c0.6,1.1,1.2,2.3,1.7,3.7l-7.4,2.9c-0.3-0.7-0.5-1.3-0.8-1.8c-0.3-0.6-0.6-1-1-1.4c-0.4-0.4-0.8-0.7-1.3-0.9
		c-0.5-0.2-1.1-0.3-1.7-0.3c-0.8,0-1.6,0.2-2.2,0.6c-0.6,0.4-1.1,1-1.5,1.7c-0.4,0.7-0.7,1.6-0.9,2.5c-0.2,1-0.3,2.1-0.3,3.2
		c0,1.1,0.1,2.2,0.3,3.1c0.2,1,0.5,1.8,0.9,2.6c0.4,0.7,0.9,1.3,1.5,1.7c0.6,0.4,1.4,0.6,2.3,0.6c0.6,0,1.2-0.1,1.7-0.3
		c0.5-0.2,0.9-0.4,1.3-0.8c0.4-0.3,0.8-0.8,1.1-1.3c0.4-0.5,0.7-1.1,1.1-1.8l6.9,3.7C25.1,23.7,24.5,24.6,23.9,25.6z"/>
	<path d="M52.8,15.1c0,2.4-0.3,4.6-1,6.5c-0.7,1.9-1.6,3.5-2.8,4.8c-1.2,1.3-2.6,2.3-4.3,2.9c-1.7,0.7-3.5,1-5.5,1
		c-2,0-3.8-0.3-5.5-1c-1.7-0.7-3.1-1.6-4.3-2.9c-1.2-1.3-2.1-2.9-2.8-4.7c-0.7-1.9-1-4.1-1-6.5s0.3-4.6,1-6.5
		c0.7-1.9,1.6-3.5,2.8-4.8c1.2-1.3,2.6-2.3,4.3-2.9c1.7-0.7,3.5-1,5.5-1c2,0,3.8,0.3,5.5,1c1.7,0.7,3.1,1.6,4.3,2.9
		c1.2,1.3,2.1,2.9,2.8,4.7C52.5,10.5,52.8,12.7,52.8,15.1z M44.4,15.2c0-2.7-0.5-4.7-1.4-6c-0.9-1.4-2.2-2.1-3.8-2.1
		c-1.7,0-2.9,0.7-3.8,2c-0.9,1.3-1.3,3.3-1.3,6c0,2.7,0.5,4.7,1.4,6c0.9,1.4,2.2,2.1,3.8,2.1c1.7,0,2.9-0.7,3.8-2
		C44,19.9,44.4,17.9,44.4,15.2z"/>
	<path d="M78.2,20.8c0,1.7-0.3,3.1-0.9,4.3c-0.6,1.2-1.4,2.2-2.5,2.9c-1.1,0.8-2.4,1.3-3.8,1.7c-1.5,0.4-3.1,0.5-4.9,0.5
		c-2.4,0-4.7-0.3-6.8-1c-2.2-0.7-4-1.5-5.6-2.5l3.9-6.4c0.5,0.4,1.2,0.7,1.9,1.1s1.5,0.7,2.2,0.9c0.8,0.3,1.5,0.5,2.3,0.7
		c0.8,0.2,1.5,0.3,2.2,0.3c1.5,0,2.5-0.1,3-0.4c0.5-0.3,0.8-0.8,0.8-1.5c0-0.3-0.1-0.5-0.2-0.8c-0.2-0.2-0.4-0.4-0.8-0.7
		s-0.9-0.4-1.5-0.6C66.8,19.2,66,19,65,18.7c-1.8-0.4-3.3-0.9-4.6-1.3c-1.3-0.5-2.4-1.1-3.3-1.8c-0.9-0.7-1.5-1.6-2-2.6
		c-0.4-1-0.7-2.3-0.7-3.7c0-1.4,0.3-2.6,0.8-3.8c0.5-1.1,1.3-2.1,2.3-2.9c1-0.8,2.2-1.4,3.7-1.9c1.4-0.4,3-0.7,4.8-0.7
		c2.5,0,4.7,0.3,6.6,0.9c1.9,0.6,3.6,1.4,5.1,2.5l-3.9,6.4c-1.3-0.9-2.6-1.6-3.9-2.1C68.6,7.3,67.2,7,65.7,7c-1.2,0-2,0.2-2.4,0.5
		c-0.4,0.3-0.6,0.8-0.6,1.3c0,0.3,0.1,0.5,0.2,0.7s0.4,0.4,0.8,0.6c0.4,0.2,0.9,0.4,1.5,0.5c0.6,0.2,1.4,0.4,2.4,0.6
		c1.8,0.4,3.4,0.9,4.8,1.5c1.3,0.5,2.4,1.2,3.3,1.9c0.9,0.7,1.5,1.6,1.9,2.6S78.2,19.5,78.2,20.8z"/>
	<path d="M102.9,29.9v-7c0-1.5,0-2.8,0-4.1c0-1.3,0.1-2.5,0.1-3.7c-0.2,0.6-0.5,1.2-0.8,1.8s-0.6,1.4-0.9,2s-0.6,1.4-0.9,2
		c-0.3,0.7-0.6,1.3-0.8,1.8l-3.9,8.1L92,22.7c-0.3-0.5-0.5-1.1-0.8-1.8c-0.3-0.7-0.6-1.3-0.9-2s-0.6-1.4-0.9-2s-0.5-1.3-0.8-1.8
		c0.1,1.1,0.1,2.4,0.1,3.7c0,1.3,0,2.7,0,4.1v7h-7.7V0.5h7.5l3.6,7.9c0.4,1,0.8,1.9,1.2,2.8c0.4,0.9,0.8,1.7,1.1,2.5
		c0.3,0.8,0.6,1.5,0.8,2.1c0.2,0.6,0.4,1.1,0.5,1.6c0.3-0.8,0.7-2,1.3-3.5c0.6-1.5,1.4-3.3,2.4-5.3l3.6-7.9h7.4v29.4H102.9z"/>
	<path d="M114.6,29.9V0.5h8.3v29.4H114.6z"/>
	<path d="M149.5,25.6c-0.7,0.9-1.5,1.7-2.5,2.4c-1,0.7-2.1,1.3-3.4,1.7c-1.3,0.4-2.8,0.7-4.6,0.7c-2.2,0-4.1-0.4-5.8-1.2
		c-1.7-0.8-3.1-1.8-4.2-3.2c-1.1-1.3-2-2.9-2.6-4.8c-0.6-1.8-0.9-3.9-0.9-6c0-2.4,0.3-4.5,1-6.3c0.7-1.9,1.6-3.5,2.8-4.8
		c1.2-1.3,2.6-2.3,4.2-3c1.6-0.7,3.5-1,5.4-1c1.8,0,3.3,0.2,4.6,0.6c1.3,0.4,2.4,0.9,3.4,1.7c0.9,0.7,1.7,1.7,2.4,2.7
		c0.6,1.1,1.2,2.3,1.7,3.7l-7.4,2.9c-0.3-0.7-0.5-1.3-0.8-1.8c-0.3-0.6-0.6-1-1-1.4c-0.4-0.4-0.8-0.7-1.3-0.9
		c-0.5-0.2-1-0.3-1.7-0.3c-0.8,0-1.6,0.2-2.2,0.6c-0.6,0.4-1.1,1-1.5,1.7c-0.4,0.7-0.7,1.6-0.9,2.5c-0.2,1-0.3,2.1-0.3,3.2
		c0,1.1,0.1,2.2,0.3,3.1c0.2,1,0.5,1.8,0.9,2.6c0.4,0.7,0.9,1.3,1.5,1.7c0.6,0.4,1.4,0.6,2.3,0.6c0.6,0,1.2-0.1,1.7-0.3
		c0.5-0.2,0.9-0.4,1.3-0.8c0.4-0.3,0.8-0.8,1.1-1.3c0.4-0.5,0.7-1.1,1.1-1.8l6.9,3.7C150.8,23.7,150.2,24.6,149.5,25.6z"/>
</g>
<g>
	<path d="M71.4,60c-0.7,0.9-1.5,1.7-2.5,2.4c-1,0.7-2.1,1.3-3.4,1.7c-1.3,0.4-2.8,0.7-4.6,0.7c-2.2,0-4.1-0.4-5.8-1.2
		c-1.7-0.8-3.1-1.8-4.2-3.2c-1.1-1.3-2-2.9-2.6-4.8c-0.6-1.8-0.9-3.9-0.9-6c0-2.4,0.3-4.5,1-6.3c0.7-1.9,1.6-3.5,2.8-4.8
		c1.2-1.3,2.6-2.3,4.2-3c1.6-0.7,3.5-1,5.4-1c1.8,0,3.3,0.2,4.6,0.6c1.3,0.4,2.4,0.9,3.4,1.7c0.9,0.7,1.7,1.7,2.4,2.7
		c0.6,1.1,1.2,2.3,1.7,3.7L65.7,46c-0.3-0.7-0.5-1.3-0.8-1.8c-0.3-0.6-0.6-1-1-1.4c-0.4-0.4-0.8-0.7-1.3-0.9
		c-0.5-0.2-1.1-0.3-1.7-0.3c-0.8,0-1.6,0.2-2.2,0.6c-0.6,0.4-1.1,1-1.5,1.7c-0.4,0.7-0.7,1.6-0.9,2.5c-0.2,1-0.3,2.1-0.3,3.2
		c0,1.1,0.1,2.2,0.3,3.2s0.5,1.8,0.9,2.6c0.4,0.7,0.9,1.3,1.5,1.7c0.6,0.4,1.4,0.6,2.3,0.6c0.6,0,1.2-0.1,1.7-0.3
		c0.5-0.2,0.9-0.4,1.3-0.8c0.4-0.3,0.8-0.8,1.1-1.3c0.4-0.5,0.7-1.1,1.1-1.8l6.9,3.7C72.7,58.1,72.1,59.1,71.4,60z"/>
	<path d="M100.4,49.6c0,2.4-0.3,4.6-1,6.5c-0.7,1.9-1.6,3.5-2.8,4.8c-1.2,1.3-2.6,2.3-4.3,2.9c-1.7,0.7-3.5,1-5.5,1
		c-2,0-3.8-0.3-5.5-1c-1.7-0.7-3.1-1.6-4.3-2.9c-1.2-1.3-2.1-2.9-2.8-4.7c-0.7-1.9-1-4.1-1-6.5s0.3-4.6,1-6.5
		c0.7-1.9,1.6-3.5,2.8-4.8c1.2-1.3,2.6-2.3,4.3-2.9c1.7-0.7,3.5-1,5.5-1c2,0,3.8,0.3,5.5,1c1.7,0.7,3.1,1.6,4.3,2.9
		c1.2,1.3,2.1,2.9,2.8,4.7C100.1,45,100.4,47.1,100.4,49.6z M92,49.6c0-2.7-0.5-4.7-1.4-6c-0.9-1.4-2.2-2.1-3.8-2.1
		c-1.7,0-2.9,0.7-3.8,2c-0.9,1.3-1.3,3.3-1.3,6c0,2.7,0.5,4.7,1.4,6c0.9,1.4,2.2,2.1,3.8,2.1c1.7,0,2.9-0.7,3.8-2
		C91.5,54.3,92,52.3,92,49.6z"/>
	<path d="M124.8,64.3v-7c0-1.5,0-2.8,0-4.1c0-1.3,0.1-2.5,0.1-3.7c-0.2,0.6-0.5,1.2-0.8,1.8c-0.3,0.7-0.6,1.4-0.9,2
		c-0.3,0.7-0.6,1.4-0.9,2c-0.3,0.7-0.6,1.3-0.8,1.8l-3.9,8.1l-3.9-8.1c-0.3-0.5-0.5-1.1-0.8-1.8c-0.3-0.7-0.6-1.3-0.9-2
		c-0.3-0.7-0.6-1.4-0.9-2s-0.5-1.3-0.8-1.8c0.1,1.1,0.1,2.4,0.1,3.7c0,1.3,0,2.7,0,4.1v7H103V34.9h7.5l3.6,7.9
		c0.4,1,0.8,1.9,1.2,2.8c0.4,0.9,0.8,1.7,1.1,2.5c0.3,0.8,0.6,1.5,0.8,2.1c0.2,0.6,0.4,1.1,0.5,1.6c0.3-0.8,0.7-2,1.3-3.5
		c0.6-1.5,1.4-3.3,2.4-5.3l3.6-7.9h7.4v29.4H124.8z"/>
	<path d="M136.5,64.3V34.9h8.3v29.4H136.5z"/>
	<path d="M171.4,60c-0.7,0.9-1.5,1.7-2.5,2.4s-2.1,1.3-3.4,1.7c-1.3,0.4-2.8,0.7-4.6,0.7c-2.2,0-4.1-0.4-5.8-1.2
		c-1.7-0.8-3.1-1.8-4.2-3.2c-1.1-1.3-2-2.9-2.6-4.8c-0.6-1.8-0.9-3.9-0.9-6c0-2.4,0.3-4.5,1-6.3c0.7-1.9,1.6-3.5,2.8-4.8
		c1.2-1.3,2.6-2.3,4.2-3c1.6-0.7,3.5-1,5.4-1c1.8,0,3.3,0.2,4.6,0.6c1.3,0.4,2.4,0.9,3.4,1.7c0.9,0.7,1.7,1.7,2.4,2.7
		c0.6,1.1,1.2,2.3,1.7,3.7l-7.4,2.9c-0.3-0.7-0.5-1.3-0.8-1.8c-0.3-0.6-0.6-1-1-1.4c-0.4-0.4-0.8-0.7-1.3-0.9
		c-0.5-0.2-1-0.3-1.7-0.3c-0.8,0-1.6,0.2-2.2,0.6c-0.6,0.4-1.1,1-1.5,1.7c-0.4,0.7-0.7,1.6-0.9,2.5c-0.2,1-0.3,2.1-0.3,3.2
		c0,1.1,0.1,2.2,0.3,3.2c0.2,1,0.5,1.8,0.9,2.6c0.4,0.7,0.9,1.3,1.5,1.7c0.6,0.4,1.4,0.6,2.3,0.6c0.6,0,1.2-0.1,1.7-0.3
		c0.5-0.2,0.9-0.4,1.3-0.8c0.4-0.3,0.8-0.8,1.1-1.3c0.4-0.5,0.7-1.1,1.1-1.8l6.9,3.7C172.7,58.1,172.1,59.1,171.4,60z"/>
	<path d="M198.2,55.3c0,1.7-0.3,3.1-0.9,4.3c-0.6,1.2-1.4,2.2-2.5,2.9c-1.1,0.8-2.4,1.3-3.8,1.7c-1.5,0.4-3.1,0.5-4.9,0.5
		c-2.4,0-4.7-0.3-6.8-1s-4-1.5-5.6-2.5l3.9-6.4c0.5,0.4,1.2,0.7,1.9,1.1s1.5,0.7,2.2,0.9c0.8,0.3,1.5,0.5,2.3,0.7s1.5,0.3,2.2,0.3
		c1.5,0,2.5-0.1,3-0.4s0.8-0.8,0.8-1.5c0-0.3-0.1-0.5-0.2-0.8c-0.2-0.2-0.4-0.4-0.8-0.7c-0.4-0.2-0.9-0.4-1.5-0.6
		c-0.6-0.2-1.5-0.4-2.4-0.7c-1.8-0.4-3.3-0.9-4.6-1.3c-1.3-0.5-2.4-1.1-3.3-1.8c-0.9-0.7-1.5-1.6-2-2.6c-0.4-1-0.7-2.3-0.7-3.7
		c0-1.4,0.3-2.6,0.8-3.8c0.5-1.1,1.3-2.1,2.3-2.9s2.2-1.4,3.7-1.9c1.4-0.4,3-0.7,4.8-0.7c2.5,0,4.7,0.3,6.6,0.9
		c1.9,0.6,3.6,1.4,5.1,2.5l-3.9,6.4c-1.3-0.9-2.6-1.6-3.9-2.1c-1.3-0.5-2.7-0.7-4.2-0.7c-1.2,0-2,0.2-2.4,0.5
		c-0.4,0.3-0.6,0.8-0.6,1.3c0,0.3,0.1,0.5,0.2,0.7c0.2,0.2,0.4,0.4,0.8,0.6c0.4,0.2,0.9,0.4,1.5,0.5c0.6,0.2,1.4,0.4,2.4,0.6
		c1.8,0.4,3.4,0.9,4.8,1.5c1.3,0.5,2.5,1.2,3.3,1.9c0.9,0.7,1.5,1.6,1.9,2.6S198.2,53.9,198.2,55.3z"/>
</g>
</svg>
