<?xml version="1.0" encoding="utf-8"?>
<!-- Generator: Adobe Illustrator 19.1.0, SVG Export Plug-In . SVG Version: 6.00 Build 0)  -->
<svg version="1.1" id="Layer_1" xmlns="http://www.w3.org/2000/svg" xmlns:xlink="http://www.w3.org/1999/xlink" x="0px" y="0px"
	 viewBox="-101 49 48 48" style="enable-background:new -101 49 48 48;" xml:space="preserve">
<path d="M-77,49c-13.3,0-24,10.7-24,24s10.7,24,24,24s24-10.7,24-24S-63.7,49-77,49z M-74.6,79.7c-1.9,0-3.7-1-4.4-2.1
	c0,0-1,4-1.3,4.7c-0.8,2.7-3,5.4-3.2,5.6c-0.1,0.2-0.4,0.1-0.4-0.1c0-0.3-0.6-3.8,0.1-6.5c0.3-1.4,2.3-9.4,2.3-9.4s-0.6-1.1-0.6-2.7
	c0-2.6,1.5-4.5,3.4-4.5c1.6,0,2.4,1.2,2.4,2.6c0,1.6-1,3.9-1.6,6.1c-0.4,1.8,0.9,3.3,2.8,3.3c3.4,0,5.6-4.2,5.6-9.2
	c0-3.8-2.6-6.6-7.4-6.6c-5.4,0-8.8,3.9-8.8,8.3c0,1.5,0.5,2.6,1.2,3.4c0.3,0.4,0.4,0.5,0.3,1c-0.1,0.3-0.3,1.1-0.4,1.4
	c-0.1,0.4-0.5,0.6-0.9,0.4c-2.5-1-3.6-3.6-3.6-6.6C-89,63.9-84.7,58-76.3,58c6.8,0,11.3,4.8,11.3,9.9C-65,74.6-68.9,79.7-74.6,79.7z
	"/>
</svg>
